<?xml version="1.0" standalone="no"?>
<!DOCTYPE svg PUBLIC "-//W3C//DTD SVG 20010904//EN"
 "http://www.w3.org/TR/2001/REC-SVG-20010904/DTD/svg10.dtd">
<svg version="1.0" xmlns="http://www.w3.org/2000/svg"
 width="512.000000pt" height="512.000000pt" viewBox="0 0 512.000000 512.000000"
 preserveAspectRatio="xMidYMid meet">
<metadata>
Created by potrace 1.11, written by Peter Selinger 2001-2013
</metadata>
<g transform="translate(0.000000,512.000000) scale(0.100000,-0.100000)"
fill="#000000" stroke="none">
<path d="M2425 5099 c-72 -25 -137 -73 -181 -135 -66 -93 -65 -75 -62 -760 l3
-619 28 -57 c36 -73 119 -149 195 -179 48 -19 82 -23 209 -27 l152 -4 88 -155
c53 -93 100 -163 117 -176 39 -28 114 -34 159 -12 39 18 56 42 162 228 l67
117 457 0 c266 0 481 4 511 10 126 24 220 96 274 210 l31 65 3 588 c2 509 1
597 -13 650 -29 112 -104 201 -211 249 -39 17 -73 23 -169 26 -112 4 -122 2
-142 -17 -31 -29 -31 -83 -1 -111 19 -17 35 -20 119 -20 86 0 102 -3 150 -28
39 -20 62 -41 84 -77 l30 -48 3 -575 c3 -637 3 -639 -61 -699 -74 -71 -46 -68
-621 -71 -357 -2 -524 -6 -533 -14 -7 -6 -57 -87 -109 -179 -53 -93 -98 -169
-100 -169 -1 0 -46 77 -100 170 -53 94 -104 175 -113 179 -9 5 -95 10 -191 13
-170 3 -176 4 -223 31 -26 16 -60 47 -75 69 l-27 42 -3 598 c-2 577 -2 599 17
636 26 51 81 98 128 111 25 7 270 11 705 11 366 0 674 3 683 6 45 18 48 111 5
134 -12 6 -275 10 -702 10 -662 -1 -685 -1 -743 -21z"/>
<path d="M1566 4649 c-43 -34 -35 -64 61 -221 107 -178 107 -178 153 -178 44
0 73 27 73 68 0 30 -159 303 -195 335 -27 23 -59 22 -92 -4z"/>
<path d="M2576 4579 l-26 -20 0 -319 0 -319 26 -20 c36 -28 60 -26 95 8 29 29
29 31 29 145 l0 116 120 0 120 0 0 -124 c0 -123 0 -125 26 -145 30 -24 43 -26
77 -10 44 20 47 43 47 355 l0 296 -30 30 c-25 24 -36 29 -58 23 -55 -14 -61
-28 -64 -154 l-3 -116 -117 -3 -116 -3 -4 117 c-3 113 -4 116 -31 140 -34 29
-56 30 -91 3z"/>
<path d="M3839 4572 l-34 -30 -3 -270 c-3 -311 0 -331 65 -359 29 -12 61 -14
136 -11 123 6 192 37 249 113 54 71 72 132 72 240 0 150 -51 253 -155 310 -50
28 -63 30 -175 33 l-121 4 -34 -30z m281 -157 c86 -82 72 -292 -22 -341 -17
-9 -58 -19 -90 -21 l-58 -6 0 203 0 202 70 -4 c60 -3 73 -7 100 -33z"/>
<path d="M3244 4556 l-34 -34 0 -287 0 -287 34 -34 34 -34 123 0 c99 0 132 4
164 19 120 55 168 191 110 308 -15 28 -32 56 -40 63 -11 9 -11 17 2 48 37 88
-7 202 -96 249 -38 20 -58 23 -154 23 l-109 0 -34 -34z m240 -132 c23 -22 20
-60 -6 -78 -13 -9 -43 -16 -70 -16 l-48 0 0 55 0 55 54 0 c36 0 60 -5 70 -16z
m43 -266 c33 -30 31 -80 -3 -107 -21 -17 -41 -21 -95 -21 l-69 0 0 75 0 75 72
0 c60 0 76 -4 95 -22z"/>
<path d="M1381 4024 c-26 -33 -27 -65 -2 -95 19 -23 25 -24 180 -27 160 -3
161 -3 186 22 31 31 33 74 5 104 -20 21 -29 22 -185 22 l-164 0 -20 -26z"/>
<path d="M1514 3641 c-53 -9 -127 -53 -158 -94 -13 -17 -58 -113 -98 -212
l-75 -180 -314 -5 -314 -5 -67 -32 c-123 -58 -213 -176 -238 -314 -7 -36 -9
-294 -8 -712 3 -651 3 -657 24 -677 28 -29 79 -29 107 -1 l22 22 5 692 c5 686
5 692 27 732 25 47 74 95 123 121 33 18 85 19 1083 24 l1049 5 19 24 c31 38
24 92 -15 114 -16 9 -186 13 -678 17 l-657 5 57 138 c31 76 67 149 80 162 23
23 25 24 263 27 239 3 241 3 260 27 24 30 24 72 0 102 -19 24 -21 24 -238 26
-120 0 -236 -2 -259 -6z"/>
<path d="M3463 3153 c-55 -11 -72 -97 -27 -132 26 -21 36 -21 553 -21 507 0
528 -1 571 -21 60 -27 107 -74 136 -134 l24 -50 0 -1030 0 -1030 -24 -50 c-29
-60 -76 -107 -136 -134 -45 -20 -55 -21 -2000 -21 l-1955 0 -50 24 c-52 24
-118 88 -138 134 -7 17 -13 115 -17 255 l-5 229 -28 24 c-37 32 -62 30 -98 -5
l-29 -29 0 -189 c0 -207 10 -282 46 -358 47 -100 143 -184 252 -219 l52 -18 0
-111 c0 -122 15 -171 61 -214 57 -52 65 -53 541 -53 408 0 446 2 483 19 56 25
82 59 164 215 l72 136 649 0 649 0 75 -143 c41 -78 88 -154 103 -169 60 -58
63 -58 545 -58 409 0 446 2 483 19 89 41 115 98 115 250 l0 109 53 17 c147 47
257 174 286 329 14 77 15 1984 1 2070 -27 168 -156 310 -311 345 -43 10 -1052
23 -1096 14z m-1773 -2881 c-29 -53 -57 -103 -63 -109 -7 -10 -106 -13 -433
-13 -371 0 -424 2 -438 16 -12 12 -16 37 -16 110 l0 94 501 0 501 0 -52 -98z
m2690 4 c0 -73 -4 -98 -16 -110 -14 -14 -67 -16 -438 -16 -327 0 -426 3 -433
13 -6 6 -34 56 -63 110 l-52 97 501 0 501 0 0 -94z"/>
<path d="M635 2853 c-34 -9 -63 -33 -79 -68 -14 -29 -16 -140 -16 -1022 0
-1105 -4 -1038 70 -1075 33 -17 147 -18 1950 -18 1803 0 1917 1 1950 18 20 9
43 32 53 52 16 33 17 98 15 1037 l-3 1002 -30 31 c-42 43 -86 52 -257 48
l-150 -3 -24 -28 c-30 -35 -30 -59 0 -94 24 -28 24 -28 170 -31 l146 -3 -2
-937 -3 -937 -892 -3 -893 -2 0 940 0 940 619 2 c593 3 620 4 640 22 29 26 29
86 0 112 -21 19 -63 19 -1633 20 -886 1 -1620 0 -1631 -3z m1845 -1088 l0
-935 -895 0 -895 0 0 935 0 935 895 0 895 0 0 -935z"/>
<path d="M1079 2346 c-90 -32 -154 -92 -196 -181 l-28 -60 0 -270 0 -270 28
-61 c106 -229 416 -266 561 -67 63 87 68 118 64 419 l-3 269 -34 63 c-61 113
-162 172 -289 172 -37 -1 -83 -7 -103 -14z m179 -150 c36 -19 78 -65 91 -99 7
-17 11 -122 11 -264 0 -220 -1 -240 -21 -280 -54 -112 -219 -127 -295 -27
l-29 37 0 272 0 272 27 35 c15 19 42 42 60 51 41 20 120 22 156 3z"/>
<path d="M1885 2345 c-70 -26 -135 -84 -174 -155 l-36 -65 0 -290 0 -290 35
-64 c109 -202 375 -234 530 -65 80 88 85 114 85 424 l0 265 -28 60 c-34 73
-86 128 -152 163 -62 32 -196 41 -260 17z m217 -167 c64 -49 72 -80 76 -292 5
-230 -2 -304 -31 -347 -36 -53 -71 -72 -136 -77 -71 -5 -122 19 -161 75 -25
36 -25 40 -28 272 -2 130 0 250 3 268 7 37 46 87 90 115 45 29 141 21 187 -14z"/>
<path d="M3030 2351 c-91 -28 -164 -94 -207 -186 l-28 -60 0 -265 c0 -308 6
-336 87 -425 84 -92 213 -129 335 -96 60 16 133 70 171 125 58 87 64 125 60
413 -3 256 -3 258 -30 315 -56 120 -165 189 -296 187 -37 0 -78 -4 -92 -8z
m169 -155 c41 -22 89 -81 96 -118 3 -18 5 -139 3 -269 -3 -232 -3 -236 -28
-272 -72 -105 -225 -105 -297 1 -29 44 -36 120 -31 354 4 202 9 229 54 270 53
48 146 63 203 34z"/>
<path d="M3777 2322 c-10 -10 -17 -34 -17 -54 0 -53 27 -72 110 -76 l69 -4 3
-415 3 -415 24 -19 c30 -25 62 -24 95 2 l26 20 0 470 c0 456 -1 470 -20 489
-18 18 -33 20 -148 20 -112 0 -131 -2 -145 -18z"/>
</g>
</svg>
